
<svg id="flat" height="512" viewBox="0 0 512 512" width="512" xmlns="http://www.w3.org/2000/svg"><rect fill="#548aff" height="464" rx="16" width="336" x="88" y="24"/><circle cx="168" cy="416" fill="#639aff" r="40"/><path d="m304 24-8 16h-80l-8-16z" fill="#4976f2"/><path d="m112 48h24v16h-24z" fill="#7dafff"/><path d="m152 48h24v16h-24z" fill="#7dafff"/><path d="m376 48h24v16h-24z" fill="#7dafff"/><path d="m176 112h160v192h-160z" fill="#c5dafa"/><path d="m176 112 24 48h112l24-48z" fill="#e0edff"/><circle cx="256" cy="232" fill="#e0edff" r="48"/><circle cx="256" cy="136" fill="#bed3f7" r="8"/><path d="m280 128h16v16h-16z" fill="#02c26a"/><path d="m216 128h16v16h-16z" fill="#bed3f7"/><g fill="#4976f2"><path d="m184 336h24v16h-24z"/><path d="m224 336h24v16h-24z"/><path d="m264 336h24v16h-24z"/><path d="m304 336h24v16h-24z"/></g><path d="m168 464a48 48 0 1 1 48-48 48.05436 48.05436 0 0 1 -48 48zm0-80a32 32 0 1 0 32 32 32.036 32.036 0 0 0 -32-32z" fill="#7dafff"/><path d="m192 424h-24a7.99977 7.99977 0 0 1 -8-8v-24h16v16h16z" fill="#91c0ff"/><path d="m232 392h24v16h-24z" fill="#4976f2"/><path d="m272 392h56v16h-56z" fill="#4976f2"/><path d="m232 424h64v16h-64z" fill="#4976f2"/><path d="m312 424h56v16h-56z" fill="#4976f2"/><circle cx="256" cy="232" fill="#8be0e8" r="24"/></svg>