<svg id="flat" height="512" viewBox="0 0 512 512" width="512" xmlns="http://www.w3.org/2000/svg"><path d="m280 136v-72a16 16 0 0 1 16-16h80a56 56 0 0 1 56 56v32z" fill="#4976f2"/><path d="m128 112v-48a40 40 0 0 1 40-40h80a32 32 0 0 1 32 32v56z" fill="#548aff"/><path d="m80 136v-32a32 32 0 0 1 32-32h104a16 16 0 0 1 16 16v48z" fill="#f78e00"/><path d="m64 136 48 352h288l48-352z" fill="#c78640"/><path d="m160 136h72v160h-72z" fill="#ffa100"/><path d="m184 120v144h-64l-5.6001-56-1.59985-16-7.04-70.41a15.99605 15.99605 0 0 1 15.91988-17.59h46.32007a15.99552 15.99552 0 0 1 16 16z" fill="#ffc431"/><path d="m232 360v-264a16 16 0 0 1 16-16h56a16 16 0 0 1 16 16v264z" fill="#ef5e3b"/><path d="m232 280h88v16h-88z" fill="#e04f2b"/><circle cx="256" cy="328" fill="#fa8669" r="8"/><path d="m184 192v16h-69.6l-1.6-16z" fill="#ffb401"/><circle cx="160" cy="240" fill="#ffd873" r="8"/><path d="m405.39014 130.26-29.39014 205.74-2.29 16-5.71 40h-80v-264a15.99552 15.99552 0 0 1 16-16h85.55005a15.9946 15.9946 0 0 1 15.84009 18.26z" fill="#ffc431"/><path d="m376 336-2.29 16h-85.71v-16z" fill="#ffb401"/></svg>