<svg id="flat" height="512" viewBox="0 0 512 512" width="512" xmlns="http://www.w3.org/2000/svg"><path d="m448 224v120a104 104 0 0 1 -104 104h-176a104 104 0 0 1 -104-104v-119.99727z" fill="#ffa100"/><path d="m408 224v112a72.00606 72.00606 0 0 1 -72 72h-160a72.00591 72.00591 0 0 1 -72-72v-112z" fill="#f78e00"/><path d="m408 280v56a72.00606 72.00606 0 0 1 -72 72h-160a72.00591 72.00591 0 0 1 -72-72v-56z" fill="#ffc431"/><path d="m40 192.001h408v32h-408z" fill="#ffb401"/><path d="m24 152.001h464v40.001h-464z" fill="#ffc431"/><path d="m152 192.003 16 32h64l16-32z" fill="#ffcc4d"/><path d="m264 192.003 16 32h64l16-32z" fill="#ffcc4d"/><path d="m397.66055 229.6574 1.85744 1.85754a28.96812 28.96812 0 0 0 20.48401 8.48506 28.96812 28.96812 0 0 0 20.48405-8.48506 25.656 25.656 0 0 1 18.14206-7.51494 13.37136 13.37136 0 0 0 13.37135-13.37136v-20a16.00365 16.00365 0 0 1 4.68707-11.316 38.6287 38.6287 0 0 0 11.31347-27.3108 38.6287 38.6287 0 0 0 -11.31342-27.31708 15.99482 15.99482 0 0 1 -4.68448-11.30975v-9.37621a23.9988 23.9988 0 0 0 -23.99882-23.9988l-7.51457-7.51494a28.96809 28.96809 0 0 0 -20.48406-8.48506 28.96809 28.96809 0 0 0 -20.484 8.48506l-1.85835 1.85844a19.316 19.316 0 0 1 -13.65551 5.65787 19.316 19.316 0 0 1 -13.66177-5.65753l-1.85593-1.85584a28.97056 28.97056 0 0 0 -20.48526-8.48527 28.97057 28.97057 0 0 0 -20.48528 8.48527l-7.51473 7.51473a24 24 0 0 0 -24 24v9.39181a15.95369 15.95369 0 0 1 -4.685 11.29321 38.52622 38.52622 0 0 0 -11.3137 27.27487v.03133a38.65311 38.65311 0 0 0 11.31369 27.32119 16.00774 16.00774 0 0 1 4.68543 11.315l.00129 20a13.37344 13.37344 0 0 0 13.37347 13.37259 25.65684 25.65684 0 0 1 18.14212 7.51471 28.97053 28.97053 0 0 0 20.48526 8.48527 28.97053 28.97053 0 0 0 20.48526-8.48527l1.8604-1.8604a19.30972 19.30972 0 0 1 13.65076-5.65569 19.30972 19.30972 0 0 1 13.65775 5.65605z" fill="#e0edff"/><g fill="#c5dafa"><path d="m324.004 91.033h16v49.941h-16z" transform="matrix(.707 -.707 .707 .707 15.215 268.739)"/><path d="m411.034 108.003h49.941v16h-49.941z" transform="matrix(.707 -.707 .707 .707 45.676 342.278)"/><path d="m307.034 180.003h49.941v16h-49.941z" transform="matrix(.707 -.707 .707 .707 -35.696 289.827)"/><path d="m428.004 163.033h16v49.941h-16z" transform="matrix(.707 -.707 .707 .707 -5.236 363.366)"/><rect height="96" rx="24" width="128" x="320" y="104"/></g><path d="m432 136v32a15.9958 15.9958 0 0 1 -16 16h-64a16.002 16.002 0 0 1 -16-16v-32a16.0083 16.0083 0 0 1 16-16h64a15.99576 15.99576 0 0 1 16 16z" fill="#6cdbe6"/><path d="m432 136v32a15.9958 15.9958 0 0 1 -16 16h-48a48.54059 48.54059 0 0 1 29.41992-44.6001l31.12008-13.33984a15.90576 15.90576 0 0 1 3.46 9.93994z" fill="#3fcbd9"/></svg>