<svg id="flat" height="512" viewBox="0 0 512 512" width="512" xmlns="http://www.w3.org/2000/svg"><path d="m488 187.75v12.25l-10.99 9.41992-12.16 10.42008-32.85 28.16-56-64v98.68994a66.43775 66.43775 0 0 1 -12.39 38.65 66.50941 66.50941 0 0 0 0 77.31994 66.47244 66.47244 0 0 1 12.39 38.65018v26.68994h-240v-74.68994a66.43848 66.43848 0 0 1 12.39-38.65015 66.50941 66.50941 0 0 0 0-77.31994 66.4718 66.4718 0 0 1 -12.39-38.65v-50.68997l-56 64-56-48v-12.25a70.7815 70.7815 0 0 1 39.13-63.32007 70.75209 70.75209 0 0 0 34.63-38.45993l6.45-17.21a32.01123 32.01123 0 0 1 29.97-20.76h243.64007a32.01123 32.01123 0 0 1 29.97 20.76l6.45 17.21a70.7284 70.7284 0 0 0 34.63 38.46 70.80053 70.80053 0 0 1 39.12993 63.32z" fill="#ffc431"/><g fill="#ffb401"><path d="m317.10205 403.30664a74.88306 74.88306 0 0 1 -4.688-79.15869l14.02344 7.70361a58.79864 58.79864 0 0 0 3.68408 62.15528z"/><path d="m336.37207 315.52637-14.36133-7.05274a58.5593 58.5593 0 0 0 4.80518-14.0747l15.67578 3.20214a74.52144 74.52144 0 0 1 -6.11963 17.9253z"/><path d="m477.01 209.42-12.16 10.42-30.28-38.93 12.63-9.82z"/><path d="m414.222 141.865h16v20.27h-16z" transform="matrix(.789 -.614 .614 .789 -4.379 291.236)"/><path d="m304 216h-16v-2.74512a116.48745 116.48745 0 0 1 34.34326-82.91162l11.31348 11.31348a100.59186 100.59186 0 0 0 -29.65674 71.59814z"/><path d="m288 232h16v16h-16z"/></g><path d="m208 48.00005a48 48 0 0 0 48 48h.0001a48 48 0 0 0 48-47.99995z" fill="#ffa100"/><path d="m256 136v-16a72.08124 72.08124 0 0 0 72-72h16a88.09957 88.09957 0 0 1 -88 88z" fill="#ffb401"/><path d="m229.603 131.96973a87.68744 87.68744 0 0 1 -17.60889-7.74756l8.01172-13.84961a71.6752 71.6752 0 0 0 14.39111 6.33252z" fill="#ffb401"/><path d="m194.898 355.30664-13.01953-9.2998a58.79864 58.79864 0 0 0 3.68408-62.15528l14.02344-7.70361a74.88306 74.88306 0 0 1 -4.68799 79.15869z" fill="#ffb401"/><path d="m175.62793 267.52637a74.52144 74.52144 0 0 1 -6.11963-17.9253l15.67578-3.20214a58.5593 58.5593 0 0 0 4.80518 14.0747z" fill="#ffb401"/></svg>