<svg id="flat" height="512" viewBox="0 0 512 512" width="512" xmlns="http://www.w3.org/2000/svg"><path d="m432.00006 80a40 40 0 0 1 39.99994 40 24 24 0 0 1 -24 24h8a24 24 0 0 1 24 24v16a24 24 0 0 1 -24 24h8a24 24 0 0 1 24 24v16a24 24 0 0 1 -24 24 24 24 0 0 1 24 24v16a24 24 0 0 1 -24 24 24 24 0 0 1 24 24v16a24.00956 24.00956 0 0 1 -15.75781 22.54712l-8.24219 49.45288h-103.99994l-.00006-48v-320z" fill="#ffb401"/><g fill="#ffa100"><rect height="16" rx="8" width="104" x="360" y="200"/><rect height="16" rx="8" width="104" x="360" y="136"/><rect height="16" rx="8" width="112" x="360" y="264"/><rect height="16" rx="8" width="104" x="368" y="328"/><rect height="16" rx="8" width="112" x="360" y="392"/></g><path d="m79.99994 80a40 40 0 0 0 -39.99994 40 24 24 0 0 0 24 24h-8a24 24 0 0 0 -24 24v16a24 24 0 0 0 24 24h-8a24 24 0 0 0 -24 24v16a24 24 0 0 0 24 24 24 24 0 0 0 -24 24v16a24 24 0 0 0 24 24 24 24 0 0 0 -24 24v16a24.00956 24.00956 0 0 0 15.75781 22.54712l8.24219 49.45288h103.99994l.00006-48v-320z" fill="#ffb401"/><rect fill="#ffa100" height="16" rx="8" width="104" x="48" y="200"/><rect fill="#ffa100" height="16" rx="8" width="104" x="48" y="136"/><rect fill="#ffa100" height="16" rx="8" width="112" x="40" y="264"/><rect fill="#ffa100" height="16" rx="8" width="104" x="40" y="328"/><rect fill="#ffa100" height="16" rx="8" width="112" x="40" y="392"/><path d="m375.99994 104h2.89239a21.10777 21.10777 0 0 0 2.33094-42.08643l-125.22327-13.91357-125.22327 13.91357a21.10777 21.10777 0 0 0 2.33094 42.08643h2.89239a23.99994 23.99994 0 0 0 -24 24v16a23.99994 23.99994 0 0 0 24 24 23.99994 23.99994 0 0 0 -24 24v16a23.99994 23.99994 0 0 0 24 24 23.99994 23.99994 0 0 0 -24 24v16a23.99994 23.99994 0 0 0 24 24 23.99994 23.99994 0 0 0 -24 24v16a23.99994 23.99994 0 0 0 24 24 23.99994 23.99994 0 0 0 -24 24v16a23.99994 23.99994 0 0 0 24 24 23.99994 23.99994 0 0 0 -24 24v16a23.99994 23.99994 0 0 0 24 24h239.99988a23.99994 23.99994 0 0 0 24-24v-16a23.99994 23.99994 0 0 0 -24-24 23.99994 23.99994 0 0 0 24-24v-16a23.99994 23.99994 0 0 0 -24-24 23.99994 23.99994 0 0 0 24-24v-16a23.99994 23.99994 0 0 0 -24-24 23.99994 23.99994 0 0 0 24-24v-16a23.99994 23.99994 0 0 0 -24-24 23.99994 23.99994 0 0 0 24-24v-16a23.99994 23.99994 0 0 0 -24-24 23.99994 23.99994 0 0 0 24-24v-16a23.99994 23.99994 0 0 0 -24-24z" fill="#ffc431"/><path d="m264 488v-56h112a8 8 0 0 0 8-8 8 8 0 0 0 -8-8h-112v-48h112a8 8 0 0 0 8-8 8 8 0 0 0 -8-8h-112v-48h112a8 8 0 0 0 8-8 8 8 0 0 0 -8-8h-112v-48h112a8 8 0 0 0 8-8 8 8 0 0 0 -8-8h-112v-48h112a8 8 0 0 0 8-8 8 8 0 0 0 -8-8h-112v-48h112a8 8 0 0 0 8-8 8 8 0 0 0 -8-8h-240a8 8 0 0 0 -8 8 8 8 0 0 0 8 8h112v48h-112a8 8 0 0 0 -8 8 8 8 0 0 0 8 8h112v48h-112a8 8 0 0 0 -8 8 8 8 0 0 0 8 8h112v48h-112a8 8 0 0 0 -8 8 8 8 0 0 0 8 8h112v48h-112a8 8 0 0 0 -8 8 8 8 0 0 0 8 8h112v48h-112a8 8 0 0 0 -8 8 8 8 0 0 0 8 8h112v56z" fill="#ffb401"/><path d="m224 24h64v40h-64z" fill="#ffb401"/><path d="m328 48a55.99742 55.99742 0 0 1 -56 56h-32a55.993 55.993 0 0 1 -56-56 24.00619 24.00619 0 0 1 24-24h16v8a32 32 0 1 0 64 0v-8h16a24.002 24.002 0 0 1 24 24z" fill="#ffcc4d"/><path d="m264 62.99v41.01h-16v-41.01a32.18786 32.18786 0 0 0 16 0z" fill="#ffc431"/></svg>