<svg id="flat" height="512" viewBox="0 0 512 512" width="512" xmlns="http://www.w3.org/2000/svg"><path d="m480 272v-192a16 16 0 0 0 -16-16h-192a16 16 0 0 0 -16 16v192z" fill="#ffc431"/><path d="m256 272v-192a16 16 0 0 0 -16-16h-192a16 16 0 0 0 -16 16v192z" fill="#548aff"/><path d="m24 304h464v40h-464z" fill="#d69651"/><path d="m64 240h192a0 0 0 0 1 0 0v64a0 0 0 0 1 0 0h-192a32 32 0 0 1 -32-32 32 32 0 0 1 32-32z" fill="#7dafff"/><path d="m136 72h16v168h-16z" fill="#4f7ff7"/><path d="m64 264h24v16h-24z" fill="#639aff"/><path d="m104 264h152v16h-152z" fill="#639aff"/><path d="m288 240h192a0 0 0 0 1 0 0v64a0 0 0 0 1 0 0h-192a32 32 0 0 1 -32-32 32 32 0 0 1 32-32z" fill="#ffd873" transform="matrix(-1 0 0 -1 736 544)"/><path d="m424 264h24v16h-24z" fill="#ffcc4d"/><path d="m256 264h152v16h-152z" fill="#ffcc4d"/><circle cx="112" cy="144" fill="#7dafff" r="8"/><circle cx="112" cy="184" fill="#7dafff" r="8"/><g fill="#ffb401"><path d="m296 64h24v48h-24z"/><path d="m416 64h24v48h-24z"/><path d="m384 200a40 40 0 0 1 -40-40v-48h40z"/><path d="m480 104h-224v16h120v120h16v-120h88z"/></g><path d="m472 344a54.62737 54.62737 0 0 0 -16 38.62737v73.37263a32 32 0 0 1 -32 32h-336a32 32 0 0 1 -32-32v-73.37261a54.62737 54.62737 0 0 0 -16-38.62739z" fill="#c78640"/><path d="m128 344v88a16 16 0 0 1 -16 16 16 16 0 0 1 -16-16v-88z" fill="#b1712c"/><path d="m144 72-40-48-32 40 32 48z" fill="#7dafff"/><path d="m144 72 40-48 32 40-32 48z" fill="#7dafff"/><path d="m184 24h-80l40 48z" fill="#548aff"/><path d="m200 344v88a16 16 0 0 1 -16 16 16 16 0 0 1 -16-16v-88z" fill="#b1712c"/><path d="m272 344v88a16 16 0 0 1 -16 16 16 16 0 0 1 -16-16v-88z" fill="#b1712c"/><path d="m344 344v88a16 16 0 0 1 -16 16 16 16 0 0 1 -16-16v-88z" fill="#b1712c"/><path d="m416 344v88a16 16 0 0 1 -16 16 16 16 0 0 1 -16-16v-88z" fill="#b1712c"/></svg>