<svg id="flat" height="512" viewBox="0 0 512 512" width="512" xmlns="http://www.w3.org/2000/svg"><path d="m16 176h168v-40.00009a87.99991 87.99991 0 0 0 -87.99991-87.99991h-80.00009z" fill="#ffceb6"/><path d="m496 176h-176v-40.00009a87.99991 87.99991 0 0 1 87.99991-87.99991h88.00009z" fill="#ffceb6"/><path d="m408 416v-224h-152l-8 16-8-16h-136v224z" fill="#548aff"/><path d="m240 192-24-48h-112v48z" fill="#7dafff"/><path d="m408 192v-48h-128l-24 48z" fill="#7dafff"/><g fill="#8be0e8"><path d="m336 343.99991c0-22.09139-40-80-40-80s-40 57.90861-40 80a40 40 0 0 0 80 0z"/><path d="m232 327.99991c0-13.25483-24-48-24-48s-24 34.74517-24 48a24 24 0 0 0 48 0z"/><path d="m264 271.99991c0-8.83655-16-32-16-32s-16 23.16345-16 32a16 16 0 0 0 32 0z"/></g><path d="m104 416v48l24-16 16 16 16-16 16 16 16-16 16 16 16-16 16 16 16-16 16 16 16-16 16 16 16-16 16 16 16-16 16 16 16-16 24 16v-48z" fill="#7dafff"/><path d="m128 96 73.99971 88.79966a25.88776 25.88776 0 0 1 6.00029 16.57292 22.62739 22.62739 0 0 1 -22.62739 22.62742 22.62737 22.62737 0 0 1 -16-6.62742l-73.37261-73.37267a59.79253 59.79253 0 0 1 -49.75038-26.62557l-14.24962-21.37434z" fill="#ffceb6"/><path d="m184.20988 231.97847a30.40861 30.40861 0 0 1 -20.49406-8.94917l-71.11426-71.11377a67.64368 67.64368 0 0 1 -53.00781-30.10353l-9.81239-14.71824a7.99981 7.99981 0 0 1 2.2187-11.09376 7.99981 7.99981 0 0 1 11.09369 2.21868l10.87664 16.31459c9.32856 13.99252 25.252 21.38456 42.06882 21.46688a8.00075 8.00075 0 0 1 5.618 2.34316l73.373 73.37256a14.62376 14.62376 0 0 0 24.96979-10.34625 17.92343 17.92343 0 0 0 -4.1455-11.44823l-62.2118-74.65434a7.99985 7.99985 0 0 1 1.02409-11.26688 7.99985 7.99985 0 0 1 11.26724 1.02413l62.21147 74.65393a33.94023 33.94023 0 0 1 7.82913 23.00059 30.75954 30.75954 0 0 1 -31.76475 29.29965z" fill="#ffbfa1"/><path d="m376 96-73.99972 88.79966a25.88775 25.88775 0 0 0 -6.00028 16.57292 22.62739 22.62739 0 0 0 22.62739 22.62742 22.62737 22.62737 0 0 0 16-6.62742l73.37261-73.37267a59.79253 59.79253 0 0 0 49.75038-26.62557l14.24962-21.37434z" fill="#ffceb6"/><path d="m319.79012 231.97847a30.40861 30.40861 0 0 0 20.49406-8.94917l71.11426-71.11377a67.64368 67.64368 0 0 0 53.00781-30.10353l9.81239-14.71824a7.99981 7.99981 0 0 0 -2.2187-11.09376 7.99982 7.99982 0 0 0 -11.0937 2.21868l-10.87664 16.31459c-9.32856 13.99252-25.252 21.38456-42.06882 21.46688a8.00075 8.00075 0 0 0 -5.618 2.34316l-73.373 73.37256a14.62377 14.62377 0 0 1 -24.96978-10.34625 17.9235 17.9235 0 0 1 4.14551-11.44823l62.21179-74.65434a7.99985 7.99985 0 0 0 -1.02409-11.26688 7.99985 7.99985 0 0 0 -11.26724 1.02413l-62.21147 74.65393a33.94023 33.94023 0 0 0 -7.82913 23.00059 30.75954 30.75954 0 0 0 31.76475 29.29965z" fill="#ffbfa1"/></svg>