<svg id="flat" height="512" viewBox="0 0 512 512" width="512" xmlns="http://www.w3.org/2000/svg"><path d="m472 256v-16a40 40 0 0 0 -40-40h-88v56z" fill="#639aff"/><path d="m24 112h296v368h-296z" fill="#548aff"/><path d="m376 256v-32a24 24 0 0 0 -24-24h-24a24 24 0 0 0 -24 24v32z" fill="#7dafff"/><path d="m288 256 24 224h152l24-224z" fill="#c78640"/><path d="m392 232h38.22739a16 16 0 0 1 15.91209 17.675l-14.13948 134.325h-40z" fill="#ef5e3b"/><path d="m360 232h48l-8 128h-40z" fill="#ffa100"/><circle cx="160" cy="336" fill="#6cdbe6" r="72"/><path d="m320 112-40 80h-224l-32-80z" fill="#7dafff"/><circle cx="168" cy="152" fill="#639aff" r="16"/><path d="m216 136h40v32h-40z" fill="#3cde8d"/><path d="m64 144h40v16h-40z" fill="#639aff"/><path d="m104 112h16v80h-16z" fill="#639aff"/><path d="m344 232h24a0 0 0 0 1 0 0v88a0 0 0 0 1 0 0h-40a0 0 0 0 1 0 0v-72a16 16 0 0 1 16-16z" fill="#ffc431"/><circle cx="344" cy="96" fill="#ef5e3b" r="64"/><circle cx="344" cy="128" fill="#e0edff" r="8"/><path d="m336 64h16v48h-16z" fill="#e0edff"/><path d="m232 336a72 72 0 0 1 -144 0l18 12a32.45 32.45 0 0 0 36 0 32.45 32.45 0 0 1 36 0 32.43732 32.43732 0 0 0 36 0z" fill="#9ce6ed"/><path d="m160 232a104 104 0 1 0 104 104 104.00015 104.00015 0 0 0 -104-104zm1.90835 175.97529a71.98392 71.98392 0 0 1 -66.4064-39.97529l1.68372-.54983a33.08458 33.08458 0 0 0 22.81433-31.45017 33.08458 33.08458 0 0 0 -22.81433-31.45015l-1.68372-.54985a72.00029 72.00029 0 1 1 66.4064 103.97529z" fill="#7dafff"/></svg>