<svg id="flat" height="512" viewBox="0 0 512 512" width="512" xmlns="http://www.w3.org/2000/svg"><path d="m80 24h352v384h-352z" fill="#c5dafa"/><path d="m280 224v152h-144l-24-24v-128z" fill="#548aff"/><path d="m280 235.32v-11.32h-11.32l-23.992 24h-108.688v104h108.688l23.992 24h11.32v-11.32l-24-23.992v-81.375z" fill="#4f7ff7"/><rect fill="#3fcbd9" height="72" rx="16" width="88" x="152" y="264"/><path d="m320 192h112v216h-112z" fill="#b6caf0"/><path d="m320 24h112v168h-112z" fill="#548aff"/><path d="m24 408h464a0 0 0 0 1 0 0v24a56 56 0 0 1 -56 56h-352a56 56 0 0 1 -56-56v-24a0 0 0 0 1 0 0z" fill="#e0edff"/><path d="m200 24v160h-96v-24l16-16v-120z" fill="#548aff"/><path d="m200 24h64v88h-64z" fill="#639aff"/><path d="m224 48h16v32h-16z" fill="#548aff"/><path d="m200 56v96h-36.69l-31.99 32h-22.64l43.32-43.31v-73.38l-32-31.99v-11.32h11.32l31.99 32z" fill="#4f7ff7"/><path d="m400 67.31v81.38l32 31.99v11.32h-11.32l-31.99-32h-25.38l-31.99 32h-11.32v-11.32l32-31.99v-81.38l-32-31.99v-11.32h11.32l31.99 32h25.38l31.99-32h11.32v11.32z" fill="#4f7ff7"/><path d="m400 192v160a24 24 0 0 1 -24 24 24 24 0 0 1 -24-24v-160z" fill="#aec1e8"/><path d="m264 112v32l16 16v24h-80v-72z" fill="#aec1e8"/><path d="m112 248h56v48h-56z" fill="#ffa100"/><path d="m168 312v-48h8a32 32 0 0 1 32 32v16z" fill="#8be0e8"/><path d="m16 216h56.00006a55.99994 55.99994 0 0 1 55.99994 55.99994v.00012a55.99994 55.99994 0 0 1 -55.99994 55.99994h-56.00006z" fill="#ffc431"/><path d="m16 216h48v112h-48z" fill="#ffd873"/></svg>