<svg id="flat" height="512" viewBox="0 0 512 512" width="512" xmlns="http://www.w3.org/2000/svg"><path d="m376 120v-24a32 32 0 0 0 -32-32h-104v56z" fill="#4976f2"/><path d="m280 120v-24a32 32 0 0 0 -32-32h-80a32 32 0 0 0 -32 32v24z" fill="#548aff"/><path d="m360 376 32-256h-272l32 256z" fill="#c78640"/><path d="m256 96h76.48314a16 16 0 0 1 15.68929 19.13786l-28.17243 140.86214h-64z" fill="#ef5e3b"/><path d="m200 296h64l29.03554-181.47215a16 16 0 0 0 -15.79905-18.52785h-77.23649z" fill="#ffa100"/><path d="m184 96h40a16 16 0 0 1 16 16v80a0 0 0 0 1 0 0h-72a0 0 0 0 1 0 0v-80a16 16 0 0 1 16-16z" fill="#ffc431"/><path d="m168 152h72v16h-72z" fill="#ffb401"/><path d="m496 352v96h-192a40.002 40.002 0 0 1 -40-40v-40a15.99548 15.99548 0 0 1 16-16h50.87988a4.00279 4.00279 0 0 0 3.88013-4.97l-5.61987-22.48a37.8247 37.8247 0 0 1 -1.14014-9.24 11.31371 11.31371 0 0 1 19.31006-8l44.68994 44.69z" fill="#ffceb6"/><path d="m264 376h64v16h-64z" fill="#ffbfa1"/><path d="m328 408v16h-60.65991a39.71127 39.71127 0 0 1 -3.34009-16z" fill="#ffbfa1"/><path d="m200 208v40a40.002 40.002 0 0 1 -40 40h-144v-96h56l44.68994-44.68994a11.3201 11.3201 0 0 1 19.31006 8 37.8247 37.8247 0 0 1 -1.14014 9.24l-5.61986 22.47994a4.00279 4.00279 0 0 0 3.88013 4.97h50.87987a15.99548 15.99548 0 0 1 16 16z" fill="#ffceb6"/><g fill="#ffbfa1"><path d="m136 216h64v16h-64z"/><path d="m200 248a39.71127 39.71127 0 0 1 -3.34009 16h-60.65991v-16z"/></g></svg>