<svg id="flat" height="512" viewBox="0 0 512 512" width="512" xmlns="http://www.w3.org/2000/svg"><path d="m472 224-23.65 136-2.78 16-5.57 32h-48v48l-128 30.12-8 1.88-8-1.88-128-30.12v-48h-48l-5.57-32-2.78-16-23.65-136 48-136 96-24h144l96 24z" fill="#548aff"/><g fill="#4f7ff7"><path d="m128 184v216a8 8 0 0 1 -16 0v-24h-45.57007l-2.78-16h48.35007v-176a8 8 0 0 1 16 0z"/><path d="m384 184v216a8 8 0 0 0 16 0v-24h45.57007l2.78-16h-48.35007v-176a8 8 0 0 0 -16 0z"/><path d="m264 72v414.12l-8 1.88-8-1.88v-414.12z"/></g><path d="m288 176h64v64h-64z" fill="#7dafff"/><path d="m256 72-40-48-32 40 32 48z" fill="#7dafff"/><path d="m256 72 40-48 32 40-32 48z" fill="#7dafff"/><path d="m296 24h-80l40 48z" fill="#548aff"/></svg>