<svg id="flat" height="512" viewBox="0 0 512 512" width="512" xmlns="http://www.w3.org/2000/svg"><path d="m328 64 96 40-40 120v248h-256v-248l-40-120 96-40z" fill="#ffc431"/><path d="m336 208-72 100.8-8 11.2-8-11.2-72-100.8 42.67-32 21.33-16h32l21.33 16z" fill="#ffe28f"/><path d="m184 64-8 96h80l-40-120z" fill="#ffe28f"/><g fill="#ffb401"><path d="m264 308.8v163.2h-16v-163.2l8 11.2z"/><path d="m128 224-24 80-8 152h-56l-16-184 64-168z"/><path d="m160 336h64v16h-64z"/></g><path d="m328 64 8 96h-80l40-120z" fill="#ffe28f"/><path d="m384 224 24 80 8 152h56l16-184-64-168z" fill="#ffb401"/><path d="m288 336h64v16h-64z" fill="#ffb401"/><path d="m216 40h80l-40 120z" fill="#ffb401"/><path d="m293.33 176h-29.33v132.8l-8 11.2-8-11.2v-132.8h-29.33l21.33-16h32z" fill="#ffd873"/></svg>