<svg id="flat" height="512" viewBox="0 0 512 512" width="512" xmlns="http://www.w3.org/2000/svg"><path d="m408 240-19.17 99.02-28.83 148.98h-208l-28.84-148.98-19.16-99.02z" fill="#6cdbe6"/><path d="m388.83008 339.02-28.83008 148.98h-208l-28.84009-148.98 36.84009-23.02a60.36348 60.36348 0 0 1 64 0 60.44008 60.44008 0 0 0 64 0 60.36346 60.36346 0 0 1 64 0z" fill="#9ce6ed"/><path d="m288 208 32-48v-120a16 16 0 0 0 -16-16h-96a16 16 0 0 0 -16 16v120l32 48z" fill="#548aff"/><path d="m232 104h48v64h-48z" fill="#08d175"/><circle cx="256" cy="64" fill="#7dafff" r="16"/><path d="m240 208h32v32h-32z" fill="#bed3f7"/><path d="m272 240v83.01a60.07171 60.07171 0 0 1 -32 0v-83.01z" fill="#d1e4ff"/><path d="m272 323.01v108.99l-16 24-16-24v-108.99a60.07171 60.07171 0 0 0 32 0z" fill="#e0edff"/><g fill="#d1e4ff"><path d="m152.57227 186.97119-8.2334-20.58447a22.77905 22.77905 0 0 0 -21.25-14.38672 38.67638 38.67638 0 0 1 -34.78125-21.49561l-15.46289-30.92675 14.31054-7.15528 15.46289 30.92627a22.7629 22.7629 0 0 0 20.47071 12.65137 38.70256 38.70256 0 0 1 36.10547 24.44385l8.23339 20.585z"/><path d="m113.59961 212.7998-14.10449-18.80615a16.80079 16.80079 0 0 0 -17.55469-6.23242 32.7663 32.7663 0 0 1 -34.23633-12.15523l-14.10449-18.8062 12.80078-9.5996 14.10449 18.80615a16.80054 16.80054 0 0 0 17.55469 6.23242 32.76324 32.76324 0 0 1 34.23633 12.15523l14.10449 18.80616z"/><path d="m359.42773 186.97119-14.85546-5.94238 8.23339-20.58447a38.70228 38.70228 0 0 1 36.10547-24.44434 22.76248 22.76248 0 0 0 20.47071-12.65186l15.46289-30.92578 14.31054 7.15528-15.46289 30.92627a38.676 38.676 0 0 1 -34.78125 21.49609 22.77877 22.77877 0 0 0 -21.25 14.38721z"/><path d="m398.40039 212.7998-12.80078-9.5996 14.10449-18.8062a32.76934 32.76934 0 0 1 34.23633-12.15527 16.80628 16.80628 0 0 0 17.55469-6.23242l14.10449-18.80615 12.80078 9.5996-14.10449 18.80624a32.77 32.77 0 0 1 -34.23633 12.15527 16.80079 16.80079 0 0 0 -17.55469 6.23242z"/></g></svg>