<svg id="flat" height="512" viewBox="0 0 512 512" width="512" xmlns="http://www.w3.org/2000/svg"><path d="m40 24h432v432h-432z" fill="#548aff"/><path d="m376 216c0 1.12-.02 2.24-.05 3.36a119.98851 119.98851 0 0 1 -116.58 116.59c-1.12.03-2.24.05-3.37.05a121.16038 121.16038 0 0 1 -17.98-1.34009 120.0095 120.0095 0 1 1 78.38-222.36991 117.82308 117.82308 0 0 1 13.48 9.15 119.433 119.433 0 0 1 44.77991 76.59 120.9259 120.9259 0 0 1 1.34009 17.97z" fill="#6cdbe6"/><path d="m72 456 8 32h40l8-32z" fill="#4976f2"/><path d="m384 456 8 32h40l8-32z" fill="#4976f2"/><g fill="#3fcbd9"><path d="m329.88 121.44-68.22009 68.22-11.31991-11.32 66.06-66.05a117.82308 117.82308 0 0 1 13.48 9.15z"/><path d="m353.40991 145.91-27.75 27.75-11.31982-11.32 28.81982-28.81a119.15357 119.15357 0 0 1 10.25 12.38z"/><path d="m255.716 196h56.569v16h-56.569z" transform="matrix(.707 -.707 .707 .707 -61.068 260.569)"/><path d="m228.686 240h22.627v16h-22.627z" transform="matrix(.707 -.707 .707 .707 -105.068 242.343)"/><path d="m369.73 177.59-100.07009 100.06991-11.31982-11.31991 104.67991-104.68a119.66575 119.66575 0 0 1 6.71 15.93z"/><path d="m253.66 293.65991-36.07 36.07009a119.66987 119.66987 0 0 1 -15.93-6.71l40.68-40.68z"/><path d="m376 216c0 1.12-.02 2.24-.05 3.36l-116.58 116.59c-1.12.03-2.24.05-3.37.05a121.16038 121.16038 0 0 1 -17.98-1.34009l136.63991-136.62991a120.9259 120.9259 0 0 1 1.34009 17.97z"/></g><path d="m80 376h80v48h-80z" fill="#7dafff"/><path d="m104 376h32v16h-32z" fill="#639aff"/><path d="m440 392a31.97287 31.97287 0 1 1 -24-30.99 32.00409 32.00409 0 0 1 24 30.99z" fill="#7dafff"/><path d="m416 361.01v30.99h-16v-30.99a32.18786 32.18786 0 0 1 16 0z" fill="#639aff"/><path d="m256 56a160 160 0 1 0 160 160 160 160 0 0 0 -160-160zm0 280a120.00043 120.00043 0 0 1 -119.98807-121.71149c.89617-64.30971 53.14136-116.93078 117.44353-118.26215a120.04329 120.04329 0 0 1 116.08592 81.05006l-20.77585 4.28846a16 16 0 0 0 -12.76553 15.66966v37.93076a16 16 0 0 0 12.76542 15.66963l20.776 4.28865a120.04745 120.04745 0 0 1 -113.54142 81.07642z" fill="#7dafff"/></svg>