<svg id="flat" height="512" viewBox="0 0 512 512" width="512" xmlns="http://www.w3.org/2000/svg"><path d="m72 72h368v416h-368z" fill="#e0edff"/><path d="m104 160h304v296h-304z" fill="#c5dafa"/><path d="m233.23829 278.778 21.3881-21.39943a32 32 0 0 1 22.63341-9.37857h25.76965a40.97052 40.97052 0 0 0 28.97055-12 40.97052 40.97052 0 0 1 28.97054-12h47.02946v232h-176z" fill="#ffa100"/><path d="m328 320h-64v-16h64a24.1139 24.1139 0 0 0 19.19922-9.59961l14.40039-19.20019 12.80078 9.5996-14.40039 19.2002a40.19106 40.19106 0 0 1 -32 16z" fill="#f78e00"/><path d="m72 24h32v48h-32z" fill="#c5dafa"/><path d="m72 120h368v40h-368z" fill="#548aff"/><path d="m336 136h32v56h-32z" fill="#91c0ff"/><path d="m360 433.60986v22.39014h-256v-184h24l18.6001-18.6001a45.762 45.762 0 0 1 67.0999 2.5801l19.54 22.8a49.32076 49.32076 0 0 0 37.43993 17.22 49.31845 49.31845 0 0 1 49.32007 49.32007v5.07007a53.05618 53.05618 0 0 0 3 17.60986 51.26118 51.26118 0 0 0 2.26 5.48 53.4197 53.4197 0 0 0 14.74 18.52 53.28152 53.28152 0 0 1 20 41.60986z" fill="#ffc431"/><path d="m136 352h16v16h-16z" fill="#ffb401"/><path d="m331.93994 384h-23.93994a48.23793 48.23793 0 0 1 -38.3999-19.19995 32.16382 32.16382 0 0 0 -25.6001-12.80005h-5.58008a39.45235 39.45235 0 0 0 -21.98 6.65991 55.47632 55.47632 0 0 1 -30.85984 9.34009h-17.58008v-16h17.58008a39.45061 39.45061 0 0 0 21.98-6.66016 55.47807 55.47807 0 0 1 30.85984-9.33984h5.58008a48.23793 48.23793 0 0 1 38.3999 19.2 32.16382 32.16382 0 0 0 25.6001 12.8h15a51.26118 51.26118 0 0 0 2.26 5.48 53.16537 53.16537 0 0 0 6.67994 10.52z" fill="#ffb401"/><g fill="#b6caf0"><circle cx="128" cy="184" r="8"/><circle cx="160" cy="184" r="8"/><circle cx="192" cy="184" r="8"/><circle cx="224" cy="184" r="8"/><circle cx="256" cy="184" r="8"/><circle cx="288" cy="184" r="8"/><circle cx="320" cy="184" r="8"/><circle cx="384" cy="184" r="8"/><circle cx="144" cy="208" r="8"/><circle cx="176" cy="208" r="8"/><circle cx="208" cy="208" r="8"/><circle cx="240" cy="208" r="8"/><circle cx="272" cy="208" r="8"/><circle cx="304" cy="208" r="8"/><circle cx="336" cy="208" r="8"/><circle cx="368" cy="208" r="8"/><circle cx="128" cy="232" r="8"/><circle cx="160" cy="232" r="8"/><circle cx="192" cy="232" r="8"/><circle cx="224" cy="232" r="8"/><circle cx="256" cy="232" r="8"/><circle cx="288" cy="232" r="8"/><circle cx="320" cy="232" r="8"/><circle cx="240" cy="256" r="8"/></g></svg>