<svg id="flat" height="512" viewBox="0 0 512 512" width="512" xmlns="http://www.w3.org/2000/svg"><path d="m24 24h384v464h-384z" fill="#548aff"/><path d="m216 152a144.05882 144.05882 0 0 0 -138.3653 104l-21.6347 8v64l21.6347 8a144.01389 144.01389 0 1 0 138.3653-184z" fill="#7dafff"/><path d="m408 24-48 80h-288l-48-80z" fill="#7dafff"/><circle cx="216" cy="64" fill="#639aff" r="16"/><path d="m280 48h56v32h-56z" fill="#3cde8d"/><path d="m144 24h16v80h-16z" fill="#639aff"/><path d="m80 56h48v16h-48z" fill="#639aff"/><path d="m312 456h176v32h-176z" fill="#bed3f7"/><path d="m312 456 32-80h112l32 80z" fill="#d1e4ff"/><path d="m368 400h64v24h-64z" fill="#3cde8d"/><path d="m485.51493 257.94029-29.51493 118.05971h-112l-29.51493-118.05971a8 8 0 0 1 7.76114-9.94029h155.50758a8 8 0 0 1 7.76114 9.94029z" fill="#c78640"/><path d="m360 240v-24a32 32 0 0 1 32-32h48a32 32 0 0 1 32 32v32h-16l-24 96h-48v-104z" fill="#ffc431"/><path d="m112 296c0 1.96.05 3.9.17 5.83a103.99348 103.99348 0 0 0 207.66.01c.12-1.93.17-3.88.17-5.84a104 104 0 0 0 -208 0z" fill="#6cdbe6"/><path d="m112.17 301.83a103.99348 103.99348 0 0 0 207.66.01l-19.83 14.16a48.18636 48.18636 0 0 1 -56 0 48.1861 48.1861 0 0 0 -56 0 48.18636 48.18636 0 0 1 -56 0z" fill="#9ce6ed"/><path d="m360 248v48h48v-64a16 16 0 0 0 -16-16h-48a16 16 0 0 0 -16 16v16z" fill="#ffd873"/></svg>