<svg id="flat" height="512" viewBox="0 0 512 512" width="512" xmlns="http://www.w3.org/2000/svg"><path d="m440 456-32 32h-296l-32-32v-360l32-32h296l32 32z" fill="#ffc431"/><path d="m80 96h96v360h-96z" fill="#ffb401"/><path d="m112 24h296v40h-296z" fill="#ffa100"/><path d="m440 456h-264l-32 32h264z" fill="#ffb401"/><path d="m176 96h264l-32-32h-264z" fill="#ffb401"/><path d="m240 160h128v160h-128z" fill="#c5dafa"/><path d="m240 160 24 32h80l24-32z" fill="#e0edff"/><g fill="#ffb401"><path d="m208 312h192v16h-192z"/><path d="m264 360h24v16h-24z"/><path d="m304 360h40v16h-40z"/><path d="m240 392h72v16h-72z"/><path d="m328 392h40v16h-40z"/></g><path d="m136 280h-16v149.333l-40 26.667 32 32h32l32-32-40-26.667z" fill="#ffa100"/><path d="m120 232h16v24h-16z" fill="#ffa100"/><path d="m120 168h16v-45.333l40-26.667-32-32h-32l-32 32 40 26.667z" fill="#ffa100"/><circle cx="304" cy="256" fill="#8be0e8" r="32"/><path d="m304 296a40 40 0 1 1 40-40 40.04552 40.04552 0 0 1 -40 40zm0-64a24 24 0 1 0 24 24 24.0275 24.0275 0 0 0 -24-24z" fill="#e0edff"/></svg>