<svg id="flat" height="512" viewBox="0 0 512 512" width="512" xmlns="http://www.w3.org/2000/svg"><path d="m216 488h56a32 32 0 0 0 32-32v-32h-88z" fill="#bed3f7"/><path d="m184 24h304v368h-304z" fill="#548aff"/><circle cx="344" cy="248" fill="#7dafff" r="112"/><circle cx="344" cy="248" fill="#6cdbe6" r="80"/><path d="m488 24-40 80h-224l-40-80z" fill="#7dafff"/><circle cx="336" cy="64" fill="#639aff" r="16"/><path d="m384 48h48v32h-48z" fill="#3cde8d"/><path d="m232 56h32v16h-32z" fill="#639aff"/><path d="m280 24h16v80h-16z" fill="#639aff"/><path d="m56 488a32 32 0 0 1 -32-32v-272h216v272a32 32 0 0 0 32 32z" fill="#e0edff"/><path d="m91.466 282.223-27.466 45.777h24l8 24 31.153-51.922z" fill="#ef5e3b"/><g fill="#bed3f7"><path d="m48 368h24v16h-24z"/><path d="m88 368h16v16h-16z"/><path d="m104 400h64v16h-64z"/><path d="m184 400h32v16h-32z"/><path d="m56 432h56v16h-56z"/><path d="m128 432h88v16h-88z"/></g><path d="m424 248a80 80 0 0 1 -160 0l20 16a32.0268 32.0268 0 0 0 40 0 32.03563 32.03563 0 0 1 40 0 32.03563 32.03563 0 0 0 40 0z" fill="#9ce6ed"/><path d="m164.534 282.223 27.466 45.777h-24l-8 24-31.153-51.922z" fill="#ef5e3b"/><circle cx="128" cy="264" fill="#ffc431" r="48"/><path d="m128 288a24.02718 24.02718 0 0 1 -24-24h16a8 8 0 1 0 8-8v-16a24 24 0 0 1 0 48z" fill="#ffb401"/></svg>