<svg id="flat" height="512" viewBox="0 0 512 512" width="512" xmlns="http://www.w3.org/2000/svg"><path d="m424 368h-384a16 16 0 0 1 -16-16v-256a16 16 0 0 1 16-16h368a16 16 0 0 1 16 16z" fill="#548aff"/><path d="m280 336 24 96h160l24-96z" fill="#c78640"/><path d="m400 376h48l22.27529-59.40076a27.088 27.088 0 0 0 1.72471-9.51124 27.088 27.088 0 0 0 -27.088-27.088h-44.912z" fill="#ffa100"/><path d="m72 128h64v64h-64z" fill="#ffcc4d"/><path d="m72 152h32v16h-32z" fill="#ffb401"/><path d="m328 152v-24l24-16 24 16v24l-24 16z" fill="#02c26a"/><g fill="#4976f2"><path d="m304 184h24v16h-24z"/><path d="m344 184h48v16h-48z"/><path d="m72 232h64v16h-64z"/><path d="m152 232h64v16h-64z"/><path d="m232 232h64v16h-64z"/><path d="m312 232h64v16h-64z"/><path d="m64 312h64v16h-64z"/><path d="m144 312h56v16h-56z"/><path d="m216 312h16v16h-16z"/><path d="m152 280h56v16h-56z"/></g><path d="m360 336v64h48l18.25864-91.29321a24 24 0 0 0 -23.53393-28.70679h-42.72471a24 24 0 0 0 -24 24v32z" fill="#ffb401"/><path d="m304 336v-8a24 24 0 0 1 24-24h24a24 24 0 0 1 24 24v40h-48v-32z" fill="#ffc431"/></svg>