<svg id="flat" height="512" viewBox="0 0 512 512" width="512" xmlns="http://www.w3.org/2000/svg"><path d="m368 448v-256l48 48 72-72-104-104h-256l-104 104 72 72 48-48v256z" fill="#d1e4ff"/><path d="m208 64v.00005a48 48 0 0 0 48 48h.0001a48 48 0 0 0 48-47.99995v-.0001z" fill="#bed3f7"/><path d="m184 448 9.5738-28.7214a28.19448 28.19448 0 0 1 26.74763-19.2786 28.19449 28.19449 0 0 0 19.93651-8.258 53.74657 53.74657 0 0 0 15.74206-38.00456v-11.31525a26.9481 26.9481 0 0 0 -12-22.42219 26.94807 26.94807 0 0 1 -12-22.44757 25.5283 25.5283 0 0 0 -25.52827-25.55243h-17.62735a53.8962 53.8962 0 0 1 -44.84438-24v200z" fill="#c78640"/><path d="m368 344h-50.62763a21.37238 21.37238 0 0 1 -21.37237-21.37237 30.14008 30.14008 0 0 0 -16.661-26.9581 27.74842 27.74842 0 0 1 -15.339-24.819 27.74843 27.74843 0 0 1 12.35636-23.08808 26.14783 26.14783 0 0 0 11.64364-21.75633 18.00609 18.00609 0 0 1 18.00609-18.00612h8.94847a26.9545 26.9545 0 0 1 26.14971 20.41708 15.29166 15.29166 0 0 0 14.8351 11.58292h12.06063z" fill="#c78640"/><path d="m272 448v-8.62766a55.499 55.499 0 0 1 7.909-28.554 55.238 55.238 0 0 1 47.36623-26.81834 55.238 55.238 0 0 0 30.64053-9.27721l10.08424-6.72279v80z" fill="#c78640"/><g fill="#bed3f7"><path d="m179.029 195.999h33.941v16.001h-33.941z" transform="matrix(.707 -.707 .707 .707 -86.843 198.343)"/><path d="m203.029 211.999h33.941v16.001h-33.941z" transform="matrix(.707 -.707 .707 .707 -91.127 220)"/><path d="m260 145.578h16v28.844h-16z" transform="matrix(.555 -.832 .832 .555 -13.788 294.237)"/><path d="m280 131.056h16v17.889h-16z" transform="matrix(.447 -.894 .894 .447 33.983 334.985)"/><path d="m83.508 136h32.985v15.999h-32.985z" transform="matrix(.243 -.97 .97 .243 -63.956 206.084)"/><path d="m115.508 128h32.985v15.999h-32.985z" transform="matrix(.243 -.97 .97 .243 -31.957 231.069)"/><path d="m388 143.351h16.001v25.298h-16.001z" transform="matrix(.949 -.316 .316 .949 -29.01 133.232)"/><path d="m420 143.351h16.001v25.298h-16.001z" transform="matrix(.949 -.316 .316 .949 -27.368 143.351)"/></g></svg>