<svg id="flat" height="512" viewBox="0 0 512 512" width="512" xmlns="http://www.w3.org/2000/svg"><path d="m395.57812 194.7334-14.31152-7.15528 46.21192-92.42285a43.05122 43.05122 0 0 0 4.52148-19.15527 28.00024 28.00024 0 0 0 -44.7998-22.40039l-28.80079 21.60059-9.59961-12.80079 28.80079-21.59961a43.99976 43.99976 0 0 1 70.39941 35.2002 59.13129 59.13129 0 0 1 -6.21094 26.31152z" fill="#bed3f7"/><path d="m176 256 184 184 27.03 27.02979a16.97413 16.97413 0 0 0 27.67993-18.5 17.1871 17.1871 0 0 0 -3.67993-5.50979c-5.43994-5.43018-15-15-27.03-27.02l-160-160z" fill="#bed3f7"/><path d="m360 440 27.03 27.02979a16.97413 16.97413 0 0 0 27.67993-18.5 17.1871 17.1871 0 0 0 -3.67993-5.50979c-5.43994-5.43018-15-15-27.03-27.02z" fill="#aec1e8"/><path d="m336 256-184 184-27.03 27.02979a16.97413 16.97413 0 0 1 -27.67993-18.5 17.1871 17.1871 0 0 1 3.67993-5.50979c5.43994-5.43018 15-15 27.03-27.02l160-160z" fill="#d1e4ff"/><path d="m24 184h464v32h-464z" fill="#486be0"/><path d="m96 184v104l48 64 32-24-24-48v-24l248 80v-152z" fill="#548aff"/><path d="m317.784 78.81 34.216-22.81 16 24-33.491 22.328z" fill="#ffb401"/><path d="m184 152v-24a56 56 0 0 1 56-56h88l24 48-16 32h-24v-48h-64l-24 24v24z" fill="#ffc431"/><path d="m336 152-16 32h-168l16-32z" fill="#d1e4ff"/><rect fill="#4f7ff7" height="40" rx="8" width="16" x="144" y="216"/><path d="m152 440-27.03 27.02979a16.97413 16.97413 0 0 1 -27.67993-18.5 17.1871 17.1871 0 0 1 3.67993-5.50979c5.43994-5.43018 15-15 27.03-27.02z" fill="#bed3f7"/><path d="m248 152 16-24h48v24z" fill="#ffb401"/></svg>