<svg id="flat" height="512" viewBox="0 0 512 512" width="512" xmlns="http://www.w3.org/2000/svg"><path d="m240 96v-8a32 32 0 0 0 -32-32h-96v-32h104a56 56 0 0 1 56 56v16z" fill="#ffa100"/><path d="m496 376h-184l-16-40h-24a24 24 0 0 0 -24 24v23.27867a104.72118 104.72118 0 0 0 11.05572 46.83276v.00008a104.72125 104.72125 0 0 0 93.66557 57.88849h143.27871z" fill="#ffceb6"/><path d="m271.9992 96h-103.9992a48 48 0 0 1 -48-48v-24h-80a16 16 0 0 0 -16 16v216a16 16 0 0 0 16 16h96a119.99989 119.99989 0 0 0 72-24l32 24 32-24v-152z" fill="#ffc431"/><path d="m271.999 120h48v64h-48z" fill="#ffa100"/><path d="m390.11 288-8.53 64-7.47 56h-86.11l-7.47-56-8.53-64z" fill="#bbedf2"/><path d="m381.58 352-7.47 56h-86.11l-7.47-56z" fill="#548aff"/><path d="m192 224v-32l-2.34312-2.3431a19.31369 19.31369 0 0 1 -5.65688-13.6569 19.31369 19.31369 0 0 1 5.65679-13.65678l2.34321-2.34322v-32h-32v16h-32v64h32v16z" fill="#ffe28f"/><path d="m64 144h64v64h-64z" fill="#ffd873"/><path d="m64 168h40v16h-40z" fill="#ffcc4d"/><path d="m80 120c8.83656 0 32-16 32-16s-23.16344-16-32-16a16 16 0 0 0 0 32z" fill="#ffe28f"/><path d="m352 352v-168a32 32 0 0 0 -32-32l-.00083 88a54.62791 54.62791 0 0 0 -15.99917 38.62683v73.37317z" fill="#7dafff"/><path d="m408 376-35.26034-49.36448a15.84557 15.84557 0 0 0 -12.89407-6.63552 15.84556 15.84556 0 0 0 -15.84559 15.84556v88.15444h64z" fill="#ffceb6"/></svg>