<svg id="flat" height="512" viewBox="0 0 512 512" width="512" xmlns="http://www.w3.org/2000/svg"><path d="m488 112v-48a40 40 0 0 0 -40-40h-24v88z" fill="#4976f2"/><path d="m24 400v48a40 40 0 0 0 40 40h24v-88z" fill="#4976f2"/><path d="m448 104a40 40 0 0 0 40-40v304a40 40 0 0 1 -40 40h-384a40 40 0 0 0 -40 40v-304a40 40 0 0 1 40-40z" fill="#548aff"/><path d="m464 216v-16h-56a7.99846 7.99846 0 0 0 -6.749 3.70508l-53.64211 84.29492h-35.60889v-48h-16v48h-80v16h58.21436l-22.85694 40h-147.35742v16h152a8.00057 8.00057 0 0 0 6.94629-4.03076l29.69678-51.96924h30.71386l29.69678 51.96924a8.00057 8.00057 0 0 0 6.94629 4.03076h104v-16h-99.35742l-22.85694-40h122.21436v-16h-97.42676l45.81836-72z" fill="#7dafff"/><path d="m72 344h16v16h-16z" fill="#7dafff"/><circle cx="104" cy="280" fill="#bed3f7" r="16"/><path d="m104 304a24 24 0 1 1 24-24 24.02718 24.02718 0 0 1 -24 24zm0-32a8 8 0 1 0 8 8 8.00917 8.00917 0 0 0 -8-8z" fill="#62798c"/><circle cx="216" cy="280" fill="#bed3f7" r="16"/><path d="m216 304a24 24 0 1 1 24-24 24.02718 24.02718 0 0 1 -24 24zm0-32a8 8 0 1 0 8 8 8.00917 8.00917 0 0 0 -8-8z" fill="#62798c"/><path d="m176 272h63.3613a33.29819 33.29819 0 0 0 -22.76837-31.58944l-1.23163-.41056h-39.3613z" fill="#ffb401"/><path d="m304 32a64 64 0 0 0 -64 64c0 35.34619 64 120 64 120s64-84.65381 64-120a64 64 0 0 0 -64-64z" fill="#f5714f"/><circle cx="304" cy="96" fill="#e04f2b" r="24"/><path d="m72 272v-32a24 24 0 0 1 24-24h64v24h23.3613l8.6387-32h24v24a40 40 0 0 1 -40 40z" fill="#ffb401"/><path d="m192 208v-8a16 16 0 0 1 16-16h16v24z" fill="#ffd873"/><path d="m160 216v-8.6387a15.3613 15.3613 0 0 0 -15.3613-15.3613h-40.6387v24z" fill="#8098ab"/><path d="m120 168-5.33 32-2.67 16h-32l-2.67-16-5.33-32z" fill="#c78640"/><path d="m114.67 200-2.67 16h-56v-16z" fill="#c5dafa"/><path d="m136 272v-24a32 32 0 0 0 -32-32h56v24h23.3613l8.6387-32h24v24a40 40 0 0 1 -40 40z" fill="#ffc431"/></svg>