<svg id="flat" height="512" viewBox="0 0 512 512" width="512" xmlns="http://www.w3.org/2000/svg"><rect fill="#486be0" height="24" rx="8" width="40" x="72" y="432"/><rect fill="#486be0" height="24" rx="8" width="40" x="72" y="56"/><rect fill="#486be0" height="24" rx="8" width="40" x="128" y="56"/><rect fill="#548aff" height="368" rx="16" width="464" x="24" y="72"/><path d="m184 248v-80h32v-40h-48l-7.51473 7.51473a28.97051 28.97051 0 0 1 -20.48527 8.48527 28.97053 28.97053 0 0 1 -20.48526-8.48527l-7.51474-7.51473h-48v40h32v80z" fill="#ffc431"/><path d="m312 128v120h-32l-16-56-16 56h-32v-120z" fill="#f78e00"/><path d="m160 288h192v48h-192z" fill="#91c0ff"/><path d="m64 288v96h48v-48h48v-48z" fill="#7dafff"/><path d="m256 336h48v48h-48z" fill="#7dafff"/><path d="m352 240h96v96h-96z" fill="#7dafff"/><path d="m112 336h144v48h-144z" fill="#91c0ff"/><g fill="#4976f2"><path d="m328 360h24v16h-24z"/><path d="m376 360h24v16h-24z"/><path d="m424 360h24v16h-24z"/><path d="m432 104h24v16h-24z"/><path d="m392 104h24v16h-24z"/></g><path d="m448 232h-96a8.00008 8.00008 0 0 0 -8 8v40h-280a8.00008 8.00008 0 0 0 -8 8v96a8.00008 8.00008 0 0 0 8 8h240a8.00008 8.00008 0 0 0 8-8v-40h136a8.00008 8.00008 0 0 0 8-8v-96a8.00008 8.00008 0 0 0 -8-8zm-8 48h-32v-32h32zm-80-32h32v32h-32zm-16 80h-176v-32h176zm-192 0h-32v-32h32zm-80-32h32v32h-32zm0 48h32v32h-32zm48 0h128v32h-128zm176 32h-32v-32h32zm64-80h32v32h-32zm80 32h-32v-32h32z" fill="#639aff"/></svg>