<svg id="flat" height="512" viewBox="0 0 512 512" width="512" xmlns="http://www.w3.org/2000/svg"><path d="m472 304v-48a24 24 0 0 0 -24-24h-72a24 24 0 0 0 -24 24v48z" fill="#ef5e3b"/><path d="m336 408h152v8a72 72 0 0 1 -72 72h-80z" fill="#ffbfa1"/><path d="m128 168h112v120h-112z" fill="#ffbfa1"/><path d="m336 256v232h-312v-190.46a73.52936 73.52936 0 0 1 73.54-73.54h30.46l48 48 48-48h66.75a31.99526 31.99526 0 0 1 22.62 9.37z" fill="#548aff"/><path d="m488 304-24 104h-168l-24-104z" fill="#c78640"/><path d="m240 224v88l-64-40 48-48z" fill="#7dafff"/><path d="m112 224v88l64-40-48-48z" fill="#7dafff"/><path d="m272 72v100.6688a59.3312 59.3312 0 0 1 -59.3312 59.3312h-.0001a59.33121 59.33121 0 0 1 -53.06744-32.79748l-15.60126-31.20252v-96z" fill="#ffceb6"/><path d="m216 176h-8v-16h8a8.00917 8.00917 0 0 0 8-8v-16h16v16a24.02687 24.02687 0 0 1 -24 24z" fill="#ffb089"/><circle cx="200" cy="128" fill="#91591c" r="8"/><circle cx="248" cy="128" fill="#91591c" r="8"/><path d="m232 200h-20.68652a35.08178 35.08178 0 0 1 -24.97022-10.34326l11.31348-11.31348a19.18705 19.18705 0 0 0 13.65674 5.65674h20.68652z" fill="#ffb089"/><path d="m144 168 24-56-16-32h104a40 40 0 0 0 40-40v-.00006a15.99994 15.99994 0 0 0 -15.99994-15.99994h-108.28006a67.71994 67.71994 0 0 0 -67.72 67.72 67.72 67.72 0 0 0 4.31178 23.77806l19.68822 52.50194z" fill="#b1712c"/><path d="m392 360h48l11.67314-52.52911a16 16 0 0 0 -15.619-19.47089h-44.05414z" fill="#ffb401"/><path d="m288 304v-16a32 32 0 0 1 32-32h24a32 32 0 0 1 32 32v16z" fill="#ffb401"/><rect fill="#4f7ff7" height="67.882" rx="8" transform="matrix(.707 -.707 .707 .707 -258.039 193.04)" width="16" x="96" y="374.059"/><path d="m192 368 40 40h208v8a72 72 0 0 1 -72 72h-160.804a56 56 0 0 1 -39.598-16.402l-39.598-39.598z" fill="#ffceb6"/><rect fill="#4f7ff7" height="56.569" rx="8" transform="matrix(.707 -.707 .707 .707 -195.696 223.549)" width="16" x="164" y="319.716"/><path d="m360 456a7.99986 7.99986 0 0 1 3.57765-10.73294l16.413-8.2065a7.08332 7.08332 0 0 0 4.00048-5.87754 6.8405 6.8405 0 0 0 -6.82413-7.18302h-25.167a8 8 0 0 1 -8-8 8 8 0 0 1 8-8h24.59089c12.75714 0 23.60261 10.43838 23.40633 23.194a22.70479 22.70479 0 0 1 -12.61831 20.06088l-16.646 8.32284a7.99986 7.99986 0 0 1 -10.73291-3.57772z" fill="#ffbfa1"/><path d="m352 376h48l16-88h-64z" fill="#ffc431"/><path d="m336 288h32a0 0 0 0 1 0 0v56a0 0 0 0 1 0 0h-48a0 0 0 0 1 0 0v-40a16 16 0 0 1 16-16z" fill="#ffd873"/></svg>