<svg id="flat" height="512" viewBox="0 0 512 512" width="512" xmlns="http://www.w3.org/2000/svg"><path d="m376 176-32 152h-40v32l-96 29.54-8 2.46-8-2.46-96-29.54v-32h-40l-10.11-48-21.89-104 32-104 80-16h128l80 16z" fill="#548aff"/><path d="m160 24h80l-40 48z" fill="#548aff"/><path d="m104 144v176a8 8 0 0 1 -16 0v-24h-38.74l-3.36987-16h42.10987v-136a8 8 0 0 1 16 0z" fill="#4f7ff7"/><path d="m208 72v317.54l-8 2.46-8-2.46v-317.54z" fill="#4f7ff7"/><path d="m312 288h-16v-144a8 8 0 0 1 8-8 8 8 0 0 1 8 8z" fill="#4f7ff7"/><path d="m200 72-40-48-24 32 32 48z" fill="#7dafff"/><path d="m200 72 40-48 24 32-32 48z" fill="#7dafff"/><path d="m400 288h24a32 32 0 0 1 32 32v104h32v-112a56 56 0 0 0 -56-56h-32z" fill="#ffa100"/><path d="m488 408h-24a48 48 0 0 1 -48-48v-104h-112l-24 32 24 32a119.99989 119.99989 0 0 0 -24 72v80a16 16 0 0 0 16 16h176a16 16 0 0 0 16-16z" fill="#ffc431"/><path d="m328 232h80v24h-80z" fill="#f78e00"/><path d="m344 200h48v32h-48z" fill="#ffa100"/><g fill="#ffe28f"><circle cx="344" cy="432" r="8"/><path d="m352 416h-16v-8a8 8 0 0 1 8-8 8 8 0 0 1 8 8z"/><path d="m328 424v16h-8a8 8 0 0 1 -8-8 8 8 0 0 1 8-8z"/><path d="m336 448h16v8a8 8 0 0 1 -8 8 8 8 0 0 1 -8-8z"/><path d="m360 440v-16h8a8 8 0 0 1 8 8 8 8 0 0 1 -8 8z"/><circle cx="368" cy="368" r="8"/><path d="m376 352h-16v-8a8 8 0 0 1 8-8 8 8 0 0 1 8 8z"/><path d="m352 360v16h-8a8 8 0 0 1 -8-8 8 8 0 0 1 8-8z"/><path d="m360 384h16v8a8 8 0 0 1 -8 8 8 8 0 0 1 -8-8z"/><path d="m384 376v-16h8a8 8 0 0 1 8 8 8 8 0 0 1 -8 8z"/></g></svg>