<svg id="flat" height="512" viewBox="0 0 512 512" width="512" xmlns="http://www.w3.org/2000/svg"><path d="m320 360v-240l32 32 56-56-72-72h-80v8.00007a39.99993 39.99993 0 0 1 -40 39.99993h-.00008a39.99993 39.99993 0 0 1 -39.99992-39.99993v-8.00007h-80l-72 72 56 56 32-32v240z" fill="#548aff"/><path d="m112 192h208v40h-208z" fill="#7dafff"/><path d="m112 232h208v40h-208z" fill="#91c0ff"/><path d="m312 184h80v48h-80z" fill="#ffb401"/><circle cx="352" cy="352" fill="#ffc431" r="136"/><path d="m344 152h16v32h-16z" fill="#ffa100"/><path d="m312 128h80v24h-80z" fill="#ffc431"/><path d="m448 352q0 4.03491-.34009 8a95.2533 95.2533 0 0 1 -16.80991 46.76 96.39213 96.39213 0 0 1 -37.93006 32.11 95.08241 95.08241 0 0 1 -32.91994 8.78991q-3.96.34515-8 .34009-4.03491 0-8-.34009a95.2533 95.2533 0 0 1 -46.76-16.80991 96.08143 96.08143 0 0 1 -24.09-24.09 95.11622 95.11622 0 0 1 -16.80991-46.76q-.34515-3.96-.34009-8 0-4.03491.34009-8a95.11458 95.11458 0 0 1 16.80991-46.76 96.47885 96.47885 0 0 1 37.94007-32.11 94.96884 94.96884 0 0 1 32.90993-8.79q3.96-.345 8-.34 4.03491 0 8 .34a95.25678 95.25678 0 0 1 46.76 16.80993 96.07992 96.07992 0 0 1 24.09 24.09007 95.11458 95.11458 0 0 1 16.80991 46.76q.34515 3.96.34009 8z" fill="#d1e4ff"/><g fill="#bed3f7"><path d="m360 256.34v23.66h-16v-23.66q3.96-.345 8-.34 4.03491 0 8 .34z"/><path d="m322.92993 285.6499-13.85986 8-11.83008-20.5a95.21862 95.21862 0 0 1 13.8501-8.0199z"/><path d="m293.65 309.07007-8 13.85986-20.52-11.85a94.58279 94.58279 0 0 1 8.02-13.84z"/><path d="m280 344v16h-23.65991q-.34515-3.96-.34009-8 0-4.03491.34009-8z"/><path d="m293.65 394.92993-20.5 11.83007a94.584 94.584 0 0 1 -8.02-13.84009l20.52-11.84985z"/><path d="m322.92993 418.35-11.83984 20.52a95.23028 95.23028 0 0 1 -13.8501-8.02l11.83008-20.5z"/><path d="m360 424v23.65991q-3.96.34515-8 .34009-4.03491 0-8-.34009v-23.65991z"/><path d="m406.77 430.85a96.14315 96.14315 0 0 1 -13.8501 8.02l-11.84985-20.52 13.85986-8z"/><path d="m438.87 392.90991a95.20834 95.20834 0 0 1 -8.02 13.8501l-20.5-11.83008 8-13.85986z"/><path d="m448 352q0 4.03491-.34009 8h-23.65991v-16h23.65991q.34515 3.96.34009 8z"/><path d="m438.87 311.08-20.52 11.85-8-13.85986 20.5-11.83014a94.58279 94.58279 0 0 1 8.02 13.84z"/><path d="m406.76 273.1499-11.83008 20.5-13.85986-8 11.83985-20.5199a95.21862 95.21862 0 0 1 13.85009 8.0199z"/></g><path d="m344 296h16v56h-16z" fill="#ffa100"/><circle cx="352" cy="352" fill="#ffc431" r="16"/></svg>