<svg id="flat" height="512" viewBox="0 0 512 512" width="512" xmlns="http://www.w3.org/2000/svg"><path d="m488 128v320h-168l-64-136-64 136h-168v-320z" fill="#548aff"/><path d="m488 128-16-24v-40h-432v40l-16 24z" fill="#7dafff"/><g fill="#639aff"><path d="m40 88h40v16h-40z"/><path d="m128 88h16v16h-16z"/><path d="m160 88h312v16h-312z"/></g><path d="m265.87054 320h-57.87054a8 8 0 0 1 -8-8 8 8 0 0 1 8-8h57.87162a55.99966 55.99966 0 0 0 53.126-38.291l6.88312-20.64936a8 8 0 0 1 10.11971-5.05949 8 8 0 0 1 5.05917 10.1192l-6.88331 20.64921a72.00081 72.00081 0 0 1 -68.30577 49.23144z" fill="#4f7ff7"/></svg>