<svg id="flat" height="512" viewBox="0 0 512 512" width="512" xmlns="http://www.w3.org/2000/svg"><path d="m488 304v64l-32 24h-160v-184h50.75a31.99538 31.99538 0 0 1 22.62 9.37012l46.63 46.62988h32a40.002 40.002 0 0 1 40 40z" fill="#548aff"/><path d="m296 352h192v16l-32 24h-160z" fill="#639aff"/><path d="m24 96h272v224h-272z" fill="#4f7ff7"/><path d="m96 128h128v160h-128z" fill="#c5dafa"/><path d="m96 128 24 32h80l24-32z" fill="#e0edff"/><circle cx="160" cy="224" fill="#8be0e8" r="32"/><path d="m160 264a40 40 0 1 1 40-40 40.04552 40.04552 0 0 1 -40 40zm0-64a24 24 0 1 0 24 24 24.0275 24.0275 0 0 0 -24-24z" fill="#e0edff"/><path d="m24 320h272v72h-272z" fill="#4976f2"/><circle cx="96" cy="384" fill="#e0edff" r="32"/><path d="m96 424a40 40 0 1 1 40-40 40.04552 40.04552 0 0 1 -40 40zm0-64a24 24 0 1 0 24 24 24.0275 24.0275 0 0 0 -24-24z" fill="#62798c"/><circle cx="96" cy="384" fill="#c5dafa" r="8"/><circle cx="400" cy="384" fill="#e0edff" r="32"/><path d="m400 424a40 40 0 1 1 40-40 40.04552 40.04552 0 0 1 -40 40zm0-64a24 24 0 1 0 24 24 24.0275 24.0275 0 0 0 -24-24z" fill="#62798c"/><circle cx="400" cy="384" fill="#c5dafa" r="8"/><path d="m416 264h-120v-56h50.75a31.99538 31.99538 0 0 1 22.62 9.37012z" fill="#9ce6ed"/><path d="m488 304v16l-48-16v-16h44.65991a39.71127 39.71127 0 0 1 3.34009 16z" fill="#d1e4ff"/><path d="m320 288h24v16h-24z" fill="#4f7ff7"/><path d="m24 344h24v16h-24z" fill="#f5714f"/></svg>