<svg id="flat" height="512" viewBox="0 0 512 512" width="512" xmlns="http://www.w3.org/2000/svg"><path d="m64 24h384v432h-384z" fill="#548aff"/><path d="m96 456 8 32h40l8-32z" fill="#4976f2"/><path d="m360 456 8 32h40l8-32z" fill="#4976f2"/><path d="m448 24-48 80h-288l-48-80z" fill="#7dafff"/><circle cx="256" cy="64" fill="#639aff" r="16"/><path d="m320 48h56v32h-56z" fill="#3cde8d"/><path d="m184 24h16v80h-16z" fill="#639aff"/><path d="m120 56h48v16h-48z" fill="#639aff"/><path d="m416 240-32.20532-8a144 144 0 1 0 0 96l32.20532-8z" fill="#7dafff"/><path d="m352 280c0 1.96-.05 3.9-.17 5.83a103.99348 103.99348 0 0 1 -207.66.01c-.12-1.93-.17-3.88-.17-5.84a104 104 0 0 1 208 0z" fill="#6cdbe6"/><path d="m351.83 285.83a103.99348 103.99348 0 0 1 -207.66.01l19.83 14.16a48.18636 48.18636 0 0 0 56 0 48.1861 48.1861 0 0 1 56 0 48.18636 48.18636 0 0 0 56 0z" fill="#9ce6ed"/></svg>