<svg id="flat" height="512" viewBox="0 0 512 512" width="512" xmlns="http://www.w3.org/2000/svg"><path d="m304 488h-80l-40-320-40 320h-80v-464h240z" fill="#548aff"/><path d="m104 24h24v48h-24z" fill="#4f7ff7"/><path d="m248 24h24v48h-24z" fill="#4f7ff7"/><circle cx="192" cy="48" fill="#7dafff" r="8"/><g fill="#4f7ff7"><path d="m224 64v-40h-16v40h-144v16h240v-16z"/><path d="m272 72v32a32 32 0 0 0 32 32v-64z"/><path d="m184 176a7.99978 7.99978 0 0 1 -8-8v-96a8.00008 8.00008 0 0 1 8-8h32a8.00008 8.00008 0 0 1 8 8v80a7.99967 7.99967 0 0 1 -4.42188 7.15527l-32 16a8.00153 8.00153 0 0 1 -3.57812.84473zm8-96v75.05566l16-8v-67.05566z"/><path d="m96 72v32a32 32 0 0 1 -32 32v-64z"/></g><path d="m368 312c0-26.50967-48-96-48-96s-48 69.49033-48 96a48 48 0 0 0 96 0z" fill="#8be0e8"/><path d="m448 240c0-17.67311-32-64-32-64s-32 46.32689-32 64a32 32 0 0 0 64 0z" fill="#6cdbe6"/><path d="m376 176c0-13.25483-24-48-24-48s-24 34.74517-24 48a24 24 0 0 0 48 0z" fill="#5bd2de"/></svg>